<svg xmlns="http://www.w3.org/2000/svg" viewBox="0 0 256 256" role="img" aria-label="π logo">
  <title>π logo</title>
  <path fill="#3e638c" d="M36 58H220V86H184L198 210H164L150 86H106L92 210H58L72 86H36V58Z"/>
  <path fill="#6686a6" d="M36 58H220V68H36V58ZM62 200H98V210H62V200ZM158 200H194V210H158V200Z" opacity="0.72"/>
  <path fill="#3e638c" d="M198 36L220 58H198V36ZM36 58L58 36V58H36Z" opacity="0.88"/>
  <path fill="#ece7e4" d="M203 48H210V55H203V48ZM46 55H53V48H46V55Z" opacity="0.95"/>
</svg>
